<svg width="928" height="265" viewBox="0 0 928 265" fill="none" xmlns="http://www.w3.org/2000/svg">
<path opacity="0.02" d="M184.36 206L184.072 85.04L124.744 184.688H103.72L44.68 87.632V206H0.904001V4.39999H39.496L114.952 129.68L189.256 4.39999H227.56L228.136 206H184.36ZM426.591 51.056L356.607 215.504C349.503 233.36 340.671 245.936 330.111 253.232C319.743 260.528 307.167 264.176 292.383 264.176C284.319 264.176 276.351 262.928 268.479 260.432C260.607 257.936 254.175 254.48 249.182 250.064L265.599 218.096C269.055 221.168 272.991 223.568 277.407 225.296C282.015 227.024 286.527 227.888 290.943 227.888C297.087 227.888 302.079 226.352 305.919 223.28C309.759 220.4 313.215 215.504 316.287 208.592L316.863 207.152L249.758 51.056H296.127L339.615 156.176L383.391 51.056H426.591ZM543.447 209.456C522.903 209.456 504.279 205.04 487.575 196.208C471.063 187.184 458.007 174.8 448.407 159.056C438.999 143.12 434.295 125.168 434.295 105.2C434.295 85.232 438.999 67.376 448.407 51.632C458.007 35.696 471.063 23.312 487.575 14.48C504.279 5.456 522.999 0.943996 543.735 0.943996C561.207 0.943996 576.951 4.016 590.967 10.16C605.175 16.304 617.079 25.136 626.679 36.656L596.727 64.304C583.095 48.56 566.199 40.688 546.039 40.688C533.559 40.688 522.423 43.472 512.631 49.04C502.839 54.416 495.159 62 489.591 71.792C484.215 81.584 481.527 92.72 481.527 105.2C481.527 117.68 484.215 128.816 489.591 138.608C495.159 148.4 502.839 156.08 512.631 161.648C522.423 167.024 533.559 169.712 546.039 169.712C566.199 169.712 583.095 161.744 596.727 145.808L626.679 173.456C617.079 185.168 605.175 194.096 590.967 200.24C576.759 206.384 560.919 209.456 543.447 209.456ZM716.388 48.752C740.388 48.752 758.82 54.512 771.684 66.032C784.548 77.36 790.98 94.544 790.98 117.584V206H748.932V186.704C740.484 201.104 724.74 208.304 701.7 208.304C689.796 208.304 679.428 206.288 670.596 202.256C661.956 198.224 655.332 192.656 650.724 185.552C646.116 178.448 643.812 170.384 643.812 161.36C643.812 146.96 649.188 135.632 659.94 127.376C670.884 119.12 687.684 114.992 710.34 114.992H746.052C746.052 105.2 743.076 97.712 737.124 92.528C731.172 87.152 722.244 84.464 710.34 84.464C702.084 84.464 693.924 85.808 685.86 88.496C677.988 90.992 671.268 94.448 665.7 98.864L649.572 67.472C658.02 61.52 668.1 56.912 679.812 53.648C691.716 50.384 703.908 48.752 716.388 48.752ZM712.932 178.064C720.612 178.064 727.428 176.336 733.38 172.88C739.332 169.232 743.556 163.952 746.052 157.04V141.2H715.236C696.804 141.2 687.588 147.248 687.588 159.344C687.588 165.104 689.796 169.712 694.212 173.168C698.82 176.432 705.06 178.064 712.932 178.064ZM874.554 71.504C879.93 64.016 887.13 58.352 896.154 54.512C905.37 50.672 915.93 48.752 927.834 48.752V90.224C922.842 89.84 919.482 89.648 917.754 89.648C904.89 89.648 894.81 93.296 887.514 100.592C880.218 107.696 876.57 118.448 876.57 132.848V206H831.642V51.056H874.554V71.504Z" fill="black"/>
</svg>
