<svg width="43" height="43" viewBox="0 0 43 43" fill="none" xmlns="http://www.w3.org/2000/svg">
<circle cx="21.5" cy="21.5" r="21.5" fill="black"/>
<path d="M36.8356 28.3529C36.7981 28.2751 36.7631 28.2106 36.7306 28.1589C36.1927 27.2279 35.1649 26.0851 33.6477 24.7302L33.6157 24.6991L33.5996 24.6839L33.5834 24.6683H33.5671C32.8786 24.0374 32.4425 23.6132 32.2599 23.396C31.9258 22.9823 31.851 22.5635 32.0336 22.1392C32.1626 21.8186 32.6472 21.1416 33.4862 20.1072C33.9276 19.559 34.2771 19.1196 34.5352 18.7886C36.3969 16.4097 37.204 14.8896 36.9564 14.2276L36.8602 14.0729C36.7956 13.9798 36.6289 13.8946 36.3602 13.8169C36.0908 13.7393 35.7466 13.7265 35.3269 13.7782L30.6785 13.8091C30.6032 13.7834 30.4957 13.7858 30.3556 13.8169C30.2157 13.848 30.1457 13.8636 30.1457 13.8636L30.0648 13.9024L30.0006 13.9491C29.9468 13.9799 29.8876 14.0342 29.823 14.1118C29.7587 14.1891 29.7049 14.2799 29.662 14.3833C29.1559 15.6347 28.5805 16.7982 27.9348 17.8738C27.5366 18.5151 27.1709 19.0709 26.837 19.5415C26.5035 20.012 26.2237 20.3586 25.998 20.5808C25.7718 20.8032 25.5677 20.9814 25.3845 21.116C25.2015 21.2506 25.0618 21.3075 24.9651 21.2867C24.8681 21.2659 24.7768 21.2452 24.6904 21.2246C24.5398 21.1314 24.4187 21.0048 24.3274 20.8445C24.2357 20.6842 24.174 20.4824 24.1417 20.2394C24.1096 19.9962 24.0906 19.787 24.0852 19.6111C24.0802 19.4354 24.0825 19.1869 24.0934 18.8664C24.1046 18.5456 24.1096 18.3286 24.1096 18.2148C24.1096 17.8217 24.1176 17.3951 24.1336 16.9349C24.1499 16.4747 24.163 16.11 24.1741 15.8414C24.185 15.5725 24.1901 15.2879 24.1901 14.988C24.1901 14.6881 24.1711 14.4528 24.1336 14.2821C24.0965 14.1116 24.0396 13.9461 23.9645 13.7856C23.8891 13.6253 23.7786 13.5013 23.6337 13.4133C23.4884 13.3254 23.3079 13.2556 23.093 13.2038C22.5226 13.0797 21.7964 13.0126 20.9138 13.0022C18.9125 12.9816 17.6266 13.1058 17.0563 13.3747C16.8303 13.4883 16.6259 13.6435 16.443 13.8399C16.2493 14.0675 16.2223 14.1918 16.3621 14.2122C17.0079 14.3052 17.465 14.5276 17.734 14.8792L17.831 15.0655C17.9064 15.1999 17.9817 15.4379 18.057 15.7791C18.1323 16.1204 18.1808 16.4979 18.2022 16.9114C18.2559 17.6665 18.2559 18.3129 18.2022 18.8506C18.1483 19.3885 18.0975 19.8073 18.0489 20.1072C18.0003 20.4072 17.9277 20.6502 17.831 20.8363C17.734 21.0225 17.6695 21.1363 17.6372 21.1776C17.6049 21.2189 17.578 21.2449 17.5566 21.2551C17.4168 21.3066 17.2713 21.3329 17.1207 21.3329C16.97 21.3329 16.7872 21.2604 16.572 21.1155C16.3569 20.9707 16.1336 20.7717 15.9023 20.5182C15.6709 20.2648 15.4099 19.9105 15.1193 19.4555C14.8289 19.0005 14.5276 18.4627 14.2155 17.8422L13.9573 17.3922C13.7959 17.1027 13.5754 16.6811 13.2957 16.1279C13.0157 15.5745 12.7683 15.0392 12.5532 14.5221C12.4672 14.3049 12.338 14.1395 12.1659 14.0258L12.0851 13.9791C12.0314 13.9378 11.9452 13.8939 11.8269 13.8472C11.7085 13.8005 11.5849 13.7671 11.4556 13.7465L7.03318 13.7773C6.58126 13.7773 6.27463 13.8757 6.11318 14.0723L6.04856 14.1652C6.01628 14.217 6 14.2997 6 14.4136C6 14.5273 6.03228 14.667 6.0969 14.8323C6.7425 16.2907 7.44457 17.6972 8.20312 19.0521C8.96167 20.4069 9.62084 21.4983 10.1802 22.3252C10.7397 23.1527 11.31 23.9336 11.8911 24.6677C12.4722 25.4021 12.8569 25.8727 13.0451 26.0795C13.2335 26.2866 13.3815 26.4415 13.4891 26.5449L13.8926 26.9171C14.1509 27.1654 14.5301 27.4627 15.0305 27.8091C15.5309 28.1557 16.085 28.497 16.693 28.8334C17.301 29.1692 18.0084 29.4433 18.8155 29.6553C19.6225 29.8675 20.408 29.9526 21.172 29.9115H23.0282C23.4047 29.8803 23.6899 29.7665 23.8837 29.5701L23.9479 29.4924C23.9911 29.4306 24.0315 29.3347 24.0688 29.2057C24.1066 29.0764 24.1254 28.934 24.1254 28.7791C24.1144 28.3344 24.1496 27.9337 24.2301 27.5769C24.3105 27.2203 24.4022 26.9514 24.5048 26.7703C24.6073 26.5893 24.7229 26.4366 24.8517 26.3128C24.9807 26.1888 25.0726 26.1136 25.1265 26.0878C25.1801 26.0618 25.2229 26.0441 25.2552 26.0335C25.5134 25.9508 25.8173 26.0309 26.1674 26.2742C26.5172 26.5172 26.8452 26.8173 27.1521 27.174C27.4588 27.531 27.8272 27.9315 28.2576 28.3761C28.6882 28.8209 29.0647 29.1516 29.3874 29.3691L29.71 29.5552C29.9255 29.6794 30.2053 29.7932 30.5497 29.8966C30.8935 30 31.1947 30.0258 31.4533 29.9742L35.5851 29.9122C35.9938 29.9122 36.3118 29.8472 36.5373 29.7181C36.7633 29.5889 36.8976 29.4465 36.9409 29.2915C36.9841 29.1365 36.9864 28.9605 36.9491 28.7638C36.9108 28.5676 36.8731 28.4304 36.8356 28.3529Z" fill="white"/>
</svg>
