<?xml version="1.0" standalone="no"?>
<!DOCTYPE svg PUBLIC "-//W3C//DTD SVG 20010904//EN"
 "http://www.w3.org/TR/2001/REC-SVG-20010904/DTD/svg10.dtd">
<svg version="1.0" xmlns="http://www.w3.org/2000/svg"
 width="72.000000pt" height="72.000000pt" viewBox="0 0 72.000000 72.000000"
 preserveAspectRatio="xMidYMid meet">
<metadata>
Created by potrace 1.11, written by Peter Selinger 2001-2013
</metadata>
<g transform="translate(0.000000,72.000000) scale(0.100000,-0.100000)"
fill="#000000" stroke="none">
<path d="M232 530 c-29 -3 -56 -10 -60 -16 -55 -82 -78 -105 -102 -103 -73 4
-71 6 -68 -73 l3 -73 38 -3 c28 -2 37 -8 37 -21 0 -52 85 -69 125 -25 14 15
22 30 19 35 -3 5 55 9 130 9 l135 0 13 -27 c26 -54 109 -55 135 -3 8 17 23 27
45 30 29 4 33 9 36 37 4 43 -24 102 -53 109 -12 3 -47 6 -77 7 -54 2 -56 3
-94 54 -21 29 -48 55 -59 58 -30 8 -143 11 -203 5z m68 -74 l0 -43 -80 0 c-86
-1 -85 -2 -42 55 22 28 30 32 73 32 l49 0 0 -44z m152 12 c13 -18 27 -38 31
-44 4 -7 -19 -11 -73 -11 l-80 -1 0 44 0 44 49 0 c43 0 51 -4 73 -32z m224
-113 c35 -54 -5 -84 -57 -41 -38 32 -60 33 -96 2 -27 -22 -35 -24 -163 -23
-127 0 -137 1 -163 23 -16 13 -35 24 -43 24 -21 0 -57 -20 -67 -36 -4 -8 -19
-13 -32 -12 -22 2 -25 7 -25 45 l0 43 315 0 315 0 16 -25z m-495 -66 c18 -18
19 -23 6 -42 -21 -33 -61 -34 -75 -2 -10 21 -9 28 8 45 25 25 35 25 61 -1z
m410 11 c24 -13 26 -65 3 -74 -31 -12 -51 -6 -62 19 -10 21 -9 28 8 45 23 23
25 23 51 10z"/>
</g>
</svg>
